#ifndef SONGS_H
#define SONGS_H
#include "notes.h"


/*
 * 0 = 0
 * 1 = 100
 * 2 = 200
 * 3 = 300
 * 4 = 400
 * 5 = 500
 * 6 = 600
 * 7 = 700
 * 8 = 800
 * 9 = 900
 */

// https://sampawno.ru/viewtopic.php?f=116&t=13114
 int elochka_notes[] = {
		NOTE_C4, NOTE_A4, NOTE_A4, NOTE_G4,
		NOTE_A4, NOTE_F4, NOTE_C4, NOTE_C4,
		NOTE_C4, NOTE_A4, NOTE_A4, NOTE_AS4,
		NOTE_G4, NOTE_C5, NOTE_C5, NOTE_D4,
		NOTE_D4, NOTE_AS4,NOTE_AS4,NOTE_A4,
		NOTE_G4, NOTE_F4, NOTE_C4, NOTE_A4,
		NOTE_A4, NOTE_G4, NOTE_A4, NOTE_F4
};

 int elochka_durations[] = {
		480,480,480,480,
		480,480,480,480,
		480,480,480,480,
		480,960,480,480,
		480,480,480,480,
		480,480,480,480,
		480,480,480,960
};

// https://vk.com/@arduinonorilsk-proigryvanie-i-sozdanie-melodii-s-pomoschu-funkcii-tone-na-a
 int pirates_notes[] = {
		NOTE_D4, NOTE_D4, NOTE_D4, NOTE_D4, NOTE_D4, NOTE_D4, NOTE_D4, NOTE_D4,
		NOTE_D4, NOTE_D4, NOTE_D4, NOTE_D4, NOTE_D4, NOTE_D4, NOTE_D4, NOTE_D4,
		NOTE_D4, NOTE_D4, NOTE_D4, NOTE_D4, NOTE_D4, NOTE_D4, NOTE_D4, NOTE_D4,
		NOTE_A3, NOTE_C4, NOTE_D4, NOTE_D4, NOTE_D4, NOTE_E4, NOTE_F4, NOTE_F4,
		NOTE_F4, NOTE_G4, NOTE_E4, NOTE_E4, NOTE_D4, NOTE_C4, NOTE_C4, NOTE_D4,
		REST, NOTE_A3, NOTE_C4, NOTE_B3, NOTE_D4, NOTE_B3, NOTE_E4, NOTE_F4,
		NOTE_F4, NOTE_C4, NOTE_C4, NOTE_C4, NOTE_C4, NOTE_D4, NOTE_C4,
		NOTE_D4, REST, REST, NOTE_A3, NOTE_C4, NOTE_D4, NOTE_D4, NOTE_D4, NOTE_F4,
		NOTE_G4, NOTE_G4, NOTE_G4, NOTE_A4, NOTE_A4, NOTE_A4, NOTE_A4, NOTE_G4,
		NOTE_A4, NOTE_D4, REST, NOTE_D4, NOTE_E3, NOTE_F4, NOTE_F4, NOTE_G4, NOTE_A4,
		NOTE_D4, REST, NOTE_D4, NOTE_F4, NOTE_E4, NOTE_E4, NOTE_F4, NOTE_D4
};

 int pirates_durations[] = {
		240,120,240,120,240,120,120,120,
		120,240,120,240,120,240,120,120,
		120,120,240,120,240,120,240,120,
		120,120,120,240,240,120,120,240,
		240,120,120,240,240,120,120,120,
		240,120,120,120,240,240,120,120,
		240,240,120,120,240,240,120,240,
		240,120,120,120,120,240,240,120,120,
		240,240,120,120,240,240,120,120,
		120,240,120,120,120,240,240,240,120,
		240,120,120,120,240,240,120,120
};

// https://github.com/robsoncouto/arduino-songs/blob/master/doom/doom.ino
int doom_notes[] = {
		NOTE_E2, NOTE_E2, NOTE_E3, NOTE_E2, NOTE_E2, NOTE_D3, NOTE_E2, NOTE_E2, // 1
		NOTE_C3, NOTE_E2, NOTE_E2, NOTE_AS2, NOTE_E2, NOTE_E2, NOTE_B2, NOTE_C3,
		NOTE_E2, NOTE_E2, NOTE_E3, NOTE_E2, NOTE_E2, NOTE_D3, NOTE_E2, NOTE_E2,
		NOTE_C3, NOTE_E2, NOTE_E2, NOTE_AS2,

		NOTE_E2, NOTE_E2, NOTE_E3, NOTE_E2, NOTE_E2, NOTE_D3, NOTE_E2, NOTE_E2, // 5
		NOTE_C3, NOTE_E2, NOTE_E2, NOTE_AS2, NOTE_E2, NOTE_E2, NOTE_B2, NOTE_C3,
		NOTE_E2, NOTE_E2, NOTE_E3, NOTE_E2, NOTE_E2, NOTE_D3, NOTE_E2, NOTE_E2,
		NOTE_C3, NOTE_E2, NOTE_E2, NOTE_AS2,

		NOTE_E2, NOTE_E2, NOTE_E3, NOTE_E2, NOTE_E2, NOTE_D3, NOTE_E2, NOTE_E2, // 9
		NOTE_C3, NOTE_E2, NOTE_E2, NOTE_AS2, NOTE_E2, NOTE_E2, NOTE_B2, NOTE_C3,
		NOTE_E2, NOTE_E2, NOTE_E3, NOTE_E2, NOTE_E2, NOTE_D3, NOTE_E2, NOTE_E2,
		NOTE_C3, NOTE_E2, NOTE_E2, NOTE_AS2,

		NOTE_E2, NOTE_E2, NOTE_E3, NOTE_E2, NOTE_E2, NOTE_D3, NOTE_E2, NOTE_E2, // 13
		NOTE_C3, NOTE_E2, NOTE_E2, NOTE_AS2, NOTE_E2, NOTE_E2, NOTE_B2, NOTE_C3,
		NOTE_E2, NOTE_E2, NOTE_E3, NOTE_E2, NOTE_E2, NOTE_D3, NOTE_E2, NOTE_E2,
		NOTE_FS3, NOTE_D3, NOTE_B2, NOTE_A3, NOTE_FS3, NOTE_B2, NOTE_D3, NOTE_FS3,
		NOTE_A3, NOTE_FS3, NOTE_D3, NOTE_B2
};

int doom_durations[] = {
		240, 240, 240, 240, 240, 240, 240, 240, // 1
		240, 240, 240, 240, 240, 240, 240, 240,
		240, 240, 240, 240, 240, 240, 240, 240,
		240, 240, 240, 960,

		240, 240, 240, 240, 240, 240, 240, 240, // 5
		240, 240, 240, 240, 240, 240, 240, 240,
		240, 240, 240, 240, 240, 240, 240, 240,
		240, 240, 240, 960,

		240, 240, 240, 240, 240, 240, 240, 240, // 9
		240, 240, 240, 240, 240, 240, 240, 240,
		240, 240, 240, 240, 240, 240, 240, 240,
		240, 240, 240, 960,

		240, 240, 240, 240, 240, 240, 240, 240, // 13
		240, 240, 240, 240, 240, 240, 240, 240,
		240, 240, 240, 240, 240, 240, 240, 240,
		120, 120, 120, 120, 120, 120, 120, 120,
		120, 120, 120, 120
};

// https://github.com/robsoncouto/arduino-songs/blob/master/thegodfather/thegodfather.ino
int godfather_notes[] = {
		REST, REST, REST, REST, NOTE_E4, NOTE_A4, NOTE_C5, NOTE_B4, NOTE_A4, NOTE_C5, NOTE_A4, NOTE_B4, NOTE_A4, NOTE_F4, NOTE_G4,
		NOTE_E4, NOTE_E4, NOTE_A4, NOTE_C5, NOTE_B4, NOTE_A4, NOTE_C5, NOTE_A4, NOTE_C5, NOTE_A4, NOTE_E4, NOTE_DS4,
		NOTE_D4, NOTE_D4, NOTE_F4, NOTE_GS4, NOTE_B4, NOTE_D4, NOTE_F4, NOTE_GS4,
		NOTE_A4, NOTE_C4, NOTE_C4, NOTE_G4, NOTE_F4, NOTE_E4, NOTE_G4, NOTE_F4, NOTE_F4, NOTE_E4, NOTE_E4, NOTE_GS4,
		NOTE_A4, REST, NOTE_A4, NOTE_A4, NOTE_GS4, NOTE_G4, NOTE_B4, NOTE_A4, NOTE_F4,
		NOTE_E4, NOTE_E4, NOTE_G4, NOTE_E4, NOTE_D4, NOTE_D4, NOTE_D4, NOTE_F4, NOTE_DS4,
		NOTE_E4, REST, NOTE_E4, NOTE_A4, NOTE_C5, NOTE_B4, NOTE_A4, NOTE_C5, NOTE_A4, NOTE_B4, NOTE_A4, NOTE_F4, NOTE_G4,
		NOTE_E4, NOTE_E4, NOTE_A4, NOTE_C5, NOTE_B4, NOTE_A4, NOTE_C5, NOTE_A4, NOTE_C5, NOTE_A4, NOTE_E4, NOTE_DS4,
		NOTE_D4, NOTE_D4, NOTE_F4, NOTE_GS4, NOTE_B4, NOTE_D4, NOTE_F4, NOTE_GS4,
		NOTE_A4, NOTE_C4, NOTE_C4, NOTE_G4, NOTE_F4, NOTE_E4, NOTE_G4, NOTE_F4, NOTE_F4, NOTE_E4, NOTE_E4, NOTE_GS4,
		NOTE_A4, REST, NOTE_A4, NOTE_A4, NOTE_GS4, NOTE_G4, NOTE_B4, NOTE_A4, NOTE_F4,
		NOTE_E4, NOTE_E4, NOTE_G4, NOTE_E4, NOTE_D4, NOTE_D4, NOTE_D4, NOTE_F4, NOTE_DS4,
		NOTE_E4
};

int godfather_durations[] = {
		480, 240, 240, 240, 240, 240, 240, 240, 240, 240, 240, 240, 240, 240, 240,
		960, 240, 240, 240, 240, 240, 240, 240, 240, 240, 240, 240,
		960, 240, 240, 240, 960, 240, 240, 240,
		960, 240, 240, 240, 240, 240, 240, 240, 240, 240, 240, 240,
		960, 240, 240, 240, 240, 960, 240, 240, 240,
		960, 240, 240, 240, 960, 240, 240, 240, 240,
		960, 240, 240, 240, 240, 240, 240, 240, 240, 240, 240, 240, 240,
		960, 240, 240, 240, 240, 240, 240, 240, 240, 240, 240, 240,
		960, 240, 240, 240, 960, 240, 240, 240,
		960, 240, 240, 240, 240, 240, 240, 240, 240, 240, 240, 240,
		960, 240, 240, 240, 240, 960, 240, 240, 240,
		960, 240, 240, 240, 960, 240, 240, 240, 240,
		960
};

#endif
